<svg width="43" height="20" viewBox="0 0 43 20" fill="none" xmlns="http://www.w3.org/2000/svg">
<path d="M31.5822 4.25383L30.7542 6.17327H32.4148L31.5822 4.25383ZM22.027 5.44327C22.1831 5.36537 22.275 5.19594 22.275 4.98553C22.275 4.77934 22.1785 4.63001 22.0224 4.55983C21.8803 4.48205 21.6615 4.47306 21.4518 4.47306H19.9704V5.54253H21.432C21.666 5.54259 21.8617 5.5393 22.027 5.44327ZM3.04444 4.25383L2.22576 6.17327H3.86806L3.04444 4.25383ZM41.161 16.5503H38.8377V15.5176H41.1517C41.3811 15.5176 41.5417 15.4888 41.6384 15.3983C41.7299 15.3176 41.7816 15.2035 41.7807 15.0843C41.7807 14.9439 41.7224 14.8325 41.6336 14.7658C41.5465 14.6923 41.4192 14.6588 41.2097 14.6588C40.0801 14.6221 38.6708 14.6922 38.6708 13.1682C38.6708 12.4698 39.1345 11.7345 40.397 11.7345H42.7935V10.7763H40.5669C39.895 10.7763 39.4068 10.9302 39.0612 11.1697V10.7763H35.7679C35.2414 10.7763 34.6232 10.9012 34.3309 11.1697V10.7763H28.4496V11.1697C27.9816 10.8467 27.1918 10.7763 26.8275 10.7763H22.9482V11.1697C22.578 10.8267 21.7544 10.7763 21.2527 10.7763H16.9112L15.9178 11.8048L14.9873 10.7763H8.50197V17.4967H14.865L15.8885 16.4517L16.8528 17.4967L20.775 17.5V15.9191H21.1607C21.6811 15.9271 22.2948 15.9069 22.8365 15.683V17.4965H26.0716V15.7449H26.2276C26.4267 15.7449 26.4465 15.7528 26.4465 15.9432V17.4961H36.2744C36.8983 17.4961 37.5506 17.3435 37.9117 17.0659V17.4961H41.0291C41.6777 17.4961 42.3113 17.4091 42.7933 17.1864V15.9346C42.5012 16.3433 41.9315 16.5506 41.1609 16.5506L41.161 16.5503ZM21.2122 14.9635H19.7111V16.5788H17.3727L15.8913 14.9846L14.3518 16.5788H9.58632V11.7629H14.4251L15.9052 13.3415L17.4355 11.7629H21.2797C22.2345 11.7629 23.3072 12.0158 23.3072 13.3495C23.3072 14.6873 22.2638 14.9635 21.2122 14.9635ZM28.4306 14.7451C28.6006 14.9802 28.6251 15.1996 28.63 15.6242V16.5789H27.4221V15.9764C27.4221 15.6867 27.4513 15.2576 27.2276 15.0337C27.052 14.8613 26.7839 14.8201 26.3449 14.8201H25.0592V16.5789H23.8504V11.763H26.6278C27.2371 11.763 27.6806 11.7889 28.0755 11.9902C28.4552 12.2096 28.6941 12.5103 28.6941 13.0597C28.694 13.8283 28.1581 14.2204 27.8414 14.3409C28.1091 14.4354 28.3279 14.6048 28.4306 14.7451ZM33.4003 12.7589H30.583V13.6344H33.3314V14.617H30.583V15.5753L33.4003 15.5795V16.5788H29.3849V11.7629H33.4003V12.7589ZM36.4917 16.5788H34.1486V15.5461H36.4824C36.7107 15.5461 36.8725 15.5172 36.9739 15.4267C37.0565 15.3523 37.116 15.244 37.116 15.1129C37.116 14.9724 37.0516 14.861 36.9692 14.7941C36.8771 14.7207 36.7501 14.6875 36.5407 14.6875C35.4156 14.6506 34.0066 14.7206 34.0066 13.1968C34.0066 12.4982 34.4655 11.763 35.7267 11.763H38.1387V12.7878H35.9316C35.7129 12.7878 35.5707 12.7958 35.4497 12.875C35.3178 12.953 35.269 13.0687 35.269 13.2214C35.269 13.403 35.3809 13.5267 35.5322 13.5801C35.6591 13.6223 35.7954 13.6347 36.0003 13.6347L36.6481 13.6516C37.3009 13.6666 37.7494 13.7749 38.0219 14.0388C38.256 14.2706 38.3818 14.5635 38.3818 15.0591C38.3817 16.0951 37.705 16.5788 36.4917 16.5788ZM27.1609 12.8366C27.0156 12.754 26.8011 12.7496 26.587 12.7496H25.1055V13.8312H26.5672C26.8012 13.8312 27.0002 13.8232 27.1609 13.7319C27.3169 13.6417 27.4102 13.4756 27.4102 13.2697C27.4102 13.0637 27.3169 12.9146 27.1609 12.8366ZM40.603 12.7495C40.3842 12.7495 40.2386 12.7574 40.1161 12.8365C39.9892 12.9146 39.9404 13.0302 39.9404 13.183C39.9404 13.3646 40.0476 13.4882 40.2035 13.5418C40.3305 13.584 40.4666 13.5963 40.667 13.5963L41.3192 13.6129C41.9771 13.6285 42.4165 13.7368 42.6843 14.0008C42.7331 14.0374 42.7624 14.0786 42.7959 14.1199V12.7496H40.6031L40.603 12.7495ZM21.2539 12.7495H19.6852V13.9761H21.2399C21.7022 13.9761 21.9896 13.7566 21.9898 13.34C21.9896 12.9189 21.6882 12.7495 21.2539 12.7495ZM10.7846 12.7495V13.6251H13.4257V14.6077H10.7846V15.5658H13.7424L15.1167 14.153L13.8008 12.7495H10.7846ZM18.5083 16.1173V12.2563L16.6612 14.1557L18.5083 16.1173ZM10.8855 8.38512V9.21492H20.9367L20.9321 7.45944H21.1266C21.2628 7.46399 21.3024 7.47599 21.3024 7.69111V9.21498H26.501V8.80626C26.9203 9.02122 27.5724 9.21498 28.4306 9.21498H30.6177L31.0857 8.14556H32.1234L32.5812 9.21498H36.7956V8.19914L37.4337 9.21492H40.811V2.5H37.4688V3.29305L37.0007 2.5H33.5711V3.29305L33.1414 2.5H28.5087C27.7331 2.5 27.0516 2.60353 26.501 2.89211V2.5H23.304V2.89211C22.9535 2.59466 22.4761 2.5 21.9453 2.5H10.2656L9.48202 4.23444L8.67722 2.5H4.9985V3.29305L4.59429 2.5H1.45696L5.48677e-05 5.69279V8.24669L2.15438 3.43186H3.94192L5.98793 7.99048V3.43186H7.95159L9.52602 6.69811L10.9724 3.43186H12.9755V8.24669H11.7423L11.7378 4.4758L9.99327 8.24669H8.93696L7.18794 4.47246V8.24669H4.74084L4.27858 7.17273H1.77365L1.30662 8.24669H0V9.21531H2.05567L2.51914 8.14584H3.55691L4.01917 9.21531H8.06363V8.39761L8.42461 9.2187H10.5242L10.8852 8.38528L10.8855 8.38512ZM26.7242 3.99308C27.1129 3.6088 27.7221 3.43159 28.5512 3.43159H29.7159V4.46326H28.5756C28.1368 4.46326 27.8886 4.52571 27.6499 4.74855C27.4447 4.95124 27.304 5.33448 27.304 5.83911C27.304 6.35497 27.4113 6.72687 27.6348 6.96982C27.82 7.16035 28.1567 7.21814 28.4733 7.21814H29.0138L30.7093 3.43175H32.5119L34.5488 7.98582V3.43181H36.3806L38.4954 6.78505V3.43181H39.7277V8.24647H38.0229L35.7425 4.63275V8.24647H33.2923L32.8242 7.17251H30.3249L29.8707 8.24647H28.4628C27.8781 8.24647 27.1377 8.12277 26.7184 7.7139C26.2956 7.30513 26.0758 6.75136 26.0758 5.87587C26.0755 5.1617 26.2068 4.50894 26.7242 3.99308ZM24.2496 3.43164H25.4771V8.24647H24.2496V3.43164ZM18.7151 3.43164H21.4822C22.0969 3.43164 22.5501 3.44725 22.9391 3.66227C23.3197 3.87733 23.5478 4.19133 23.5478 4.72828C23.5478 5.49602 23.0122 5.89257 22.7002 6.01172C22.9634 6.10759 23.1884 6.27691 23.2955 6.41715C23.4654 6.65664 23.4946 6.87056 23.4946 7.30053V8.24641H22.2812L22.2767 7.63923C22.2767 7.34945 22.3056 6.93279 22.0868 6.70129C21.911 6.53202 21.643 6.49515 21.2098 6.49515H19.9183V8.24647H18.7153L18.7151 3.43164ZM13.8652 3.43164H17.8842V4.43428H15.0684V5.30216H17.8166V6.28913H15.0684V7.25068H17.8842V8.24641H13.8652V3.43164Z" fill="#2557D6"/>
</svg>
