<svg width="80" height="80" viewBox="0 0 24 24" fill="none" xmlns="http://www.w3.org/2000/svg" transform="rotate(0 0 0)">
<path fill-rule="evenodd" clip-rule="evenodd" d="M12.7671 7.97499C13.6673 7.07483 15.1267 7.07483 16.0269 7.97499C16.927 8.87515 16.927 10.3346 16.0269 11.2348C15.1267 12.1349 13.6673 12.1349 12.7671 11.2348C11.867 10.3346 11.867 8.87515 12.7671 7.97499ZM14.9662 9.03565C14.6518 8.72128 14.1421 8.72128 13.8278 9.03565C13.5134 9.35002 13.5134 9.85972 13.8278 10.1741C14.1421 10.4885 14.6518 10.4885 14.9662 10.1741C15.2806 9.85972 15.2806 9.35002 14.9662 9.03565Z" fill="#343C54"/>
<path fill-rule="evenodd" clip-rule="evenodd" d="M20.6228 4.03925C20.5833 3.69229 20.3096 3.41849 19.9626 3.37892C16.2563 2.95627 12.3959 4.16647 9.55149 7.01093C8.88313 7.67929 8.30485 8.40397 7.81676 9.16971C6.17909 9.23397 4.56035 9.89123 3.31006 11.1415C2.80493 11.6466 2.39581 12.2131 2.08364 12.8175C1.95144 13.0734 1.97753 13.3825 2.15076 13.6127C2.324 13.8428 2.61377 13.9534 2.89631 13.8972C4.08151 13.6615 5.32165 13.7785 6.44958 14.2475L9.74912 17.5471C10.2184 18.6754 10.3352 19.9161 10.0992 21.1016C10.0429 21.3842 10.1534 21.674 10.3836 21.8473C10.6137 22.0205 10.9228 22.0467 11.1788 21.9146C11.7836 21.6023 12.3505 21.1929 12.856 20.6875C14.1051 19.4384 14.7623 17.8215 14.8276 16.1854C15.5949 15.6968 16.321 15.1176 16.9906 14.448C19.8344 11.6042 21.0447 7.74482 20.6228 4.03925ZM13.2077 17.0577C12.6182 17.3216 12.0126 17.5382 11.3968 17.7075C11.5918 18.359 11.6979 19.0314 11.715 19.7055C11.742 19.6796 11.7688 19.6534 11.7953 19.6268C12.5278 18.8943 12.9986 17.9992 13.2077 17.0577ZM6.29304 12.6011C6.46268 11.9848 6.67969 11.3788 6.94402 10.7889C6.00097 10.9975 5.1043 11.4686 4.37072 12.2022C4.34442 12.2285 4.31845 12.255 4.29283 12.2817C4.96767 12.299 5.64083 12.4054 6.29304 12.6011ZM10.6121 8.07159C12.9647 5.71901 16.1042 4.63364 19.185 4.81661C19.3674 7.89677 18.2819 11.0353 15.9299 13.3874C14.4239 14.8934 12.597 15.8791 10.6697 16.3464L7.65356 13.3302C8.12095 11.4035 9.10657 9.57717 10.6121 8.07159Z" fill="#343C54"/>
<path d="M7.04061 18.022C7.3335 17.7291 7.3335 17.2543 7.04061 16.9614C6.74771 16.6685 6.27284 16.6685 5.97995 16.9614L3.25052 19.6908C2.95762 19.9837 2.95762 20.4586 3.25052 20.7515C3.54341 21.0444 4.01828 21.0444 4.31118 20.7515L7.04061 18.022Z" fill="#343C54"/>
<path d="M8.6285 19.6098C8.92139 19.9027 8.92139 20.3776 8.6285 20.6705L7.56784 21.7311C7.27495 22.024 6.80007 22.024 6.50718 21.7311C6.21428 21.4382 6.21428 20.9634 6.50718 20.6705L7.56784 19.6098C7.86073 19.3169 8.33561 19.3169 8.6285 19.6098Z" fill="#343C54"/>
<path d="M4.38631 16.4283C4.6792 16.1354 4.6792 15.6605 4.38631 15.3676C4.09342 15.0747 3.61854 15.0747 3.32565 15.3676L2.26499 16.4283C1.9721 16.7212 1.9721 17.1961 2.26499 17.4889C2.55788 17.7818 3.03276 17.7818 3.32565 17.4889L4.38631 16.4283Z" fill="#343C54"/>
</svg>
