<svg width="80" height="80" viewBox="0 0 25 24" fill="none" xmlns="http://www.w3.org/2000/svg" transform="rotate(0 0 0)">
<path d="M21.4886 9.54175C21.5958 9.94185 21.3584 10.3531 20.9583 10.4603C20.5582 10.5675 20.147 10.3301 20.0397 9.92998C19.584 8.22904 18.5797 6.72602 17.1826 5.65403C15.7856 4.58203 14.0739 4.00098 12.3129 4.00098C10.552 4.00098 8.84024 4.58203 7.44319 5.65403C6.22514 6.58866 5.30566 7.85095 4.78797 9.28639L6.4631 8.34314C6.82403 8.1399 7.28137 8.26774 7.48461 8.62867C7.68784 8.98959 7.56001 9.44694 7.19908 9.65017L4.11837 11.3849C3.94504 11.4825 3.74004 11.5072 3.54846 11.4537C3.35688 11.4001 3.19443 11.2727 3.09684 11.0993L1.36222 8.01828C1.15901 7.65734 1.28687 7.2 1.64781 6.99679C2.00875 6.79358 2.46609 6.92145 2.6693 7.28239L3.4301 8.63372C4.05359 6.98861 5.1244 5.54258 6.53005 4.464C8.18906 3.19099 10.2218 2.50098 12.3129 2.50098C14.4041 2.50098 16.4368 3.19099 18.0958 4.464C19.7548 5.737 20.9474 7.52186 21.4886 9.54175Z" fill="#343C54"/>
<path d="M3.13448 14.4582C3.02728 14.0581 3.26471 13.6469 3.66481 13.5397C4.06491 13.4325 4.47617 13.6699 4.58337 14.07C5.03914 15.7709 6.04342 17.274 7.44047 18.346C8.83752 19.418 10.5493 19.999 12.3102 19.999C14.0711 19.999 15.7829 19.418 17.1799 18.346C18.3959 17.4129 19.3143 16.1534 19.8325 14.721L18.1698 15.6573C17.8089 15.8605 17.3515 15.7327 17.1483 15.3718C16.945 15.0108 17.0729 14.5535 17.4338 14.3502L20.5145 12.6155C20.6878 12.5179 20.8928 12.4932 21.0844 12.5467C21.276 12.6003 21.4385 12.7278 21.536 12.9011L23.2707 15.9821C23.4739 16.3431 23.346 16.8004 22.9851 17.0036C22.6241 17.2068 22.1668 17.079 21.9636 16.718L21.1968 15.3562C20.5739 17.0054 19.5016 18.4552 18.0931 19.536C16.4341 20.809 14.4013 21.499 12.3102 21.499C10.2191 21.499 8.18635 20.809 6.52733 19.536C4.86831 18.263 3.67571 16.4781 3.13448 14.4582Z" fill="#343C54"/>
</svg>
