<svg width="80" height="80" viewBox="0 0 24 24" fill="none" xmlns="http://www.w3.org/2000/svg" transform="rotate(0 0 0)">
<path d="M7.625 10.0244C6.93464 10.0244 6.375 10.5841 6.375 11.2744C6.375 11.9648 6.93464 12.5244 7.625 12.5244C8.31536 12.5244 8.8751 11.9648 8.8751 11.2744C8.8751 10.5841 8.31536 10.0244 7.625 10.0244Z" fill="#343C54"/>
<path d="M10.75 11.2744C10.75 10.5841 11.3096 10.0244 12 10.0244C12.6904 10.0244 13.2501 10.5841 13.2501 11.2744C13.2501 11.9648 12.6905 12.5244 12.0001 12.5244C11.3097 12.5244 10.75 11.9648 10.75 11.2744Z" fill="#343C54"/>
<path d="M16.375 10.0244C15.6846 10.0244 15.125 10.5841 15.125 11.2744C15.125 11.9648 15.6846 12.5244 16.375 12.5244C17.0654 12.5244 17.6251 11.9648 17.6251 11.2744C17.6251 10.5841 17.0654 10.0244 16.375 10.0244Z" fill="#343C54"/>
<path fill-rule="evenodd" clip-rule="evenodd" d="M9.52419 3.75C5.36869 3.75 2 7.1187 2 11.2742C2 15.3254 5.20175 18.6288 9.21289 18.7921V21.7182C9.21289 21.9955 9.36582 22.2501 9.61056 22.3803C9.85529 22.5106 10.1519 22.4952 10.3819 22.3403L15.8183 18.6788C19.3335 18.0453 22 14.9718 22 11.2742C22 7.1187 18.6313 3.75 14.4758 3.75H9.52419ZM3.5 11.2742C3.5 7.94712 6.19712 5.25 9.52419 5.25H14.4758C17.8029 5.25 20.5 7.94712 20.5 11.2742C20.5 14.2805 18.2971 16.7737 15.4176 17.2253C15.3091 17.2423 15.2058 17.2829 15.1148 17.3442L10.7129 20.3089V18.0484C10.7129 17.6342 10.3771 17.2984 9.96289 17.2984H9.52419C6.19712 17.2984 3.5 14.6013 3.5 11.2742Z" fill="#343C54"/>
</svg>
