<?xml version="1.0" standalone="no"?>
<svg xmlns:xlink="http://www.w3.org/1999/xlink" xmlns="http://www.w3.org/2000/svg" width="20" height="20" viewBox="0 0 20 20" fill="currentColor"><g clip-path="url(#clip0_317_501)"><path d="M19.6562 6C19.625 5 19.4375 4.28125 19.2187 3.625C19 2.96875 18.6562 2.4375 18.125 1.90625C17.5937 1.375 17.0625 1.0625 16.4375 0.8125C15.8125 0.5625 15.125 0.40625 14.0625 0.375C12.9687 0.3125 12.6562 0.3125 10 0.3125C7.34375 0.3125 7.0625 0.3125 6 0.34375C4.9375 0.375 4.28125 0.5625 3.625 0.78125C2.96875 1 2.4375 1.375 1.90625 1.90625C1.375 2.4375 1.03125 2.96875 0.8125 3.625C0.5625 4.25 0.40625 4.9375 0.375 6C0.34375 7.0625 0.3125 7.34375 0.3125 10C0.3125 12.6562 0.3125 12.9375 0.34375 14C0.375 15.0625 0.5625 15.7188 0.78125 16.375C1 17.0312 1.34375 17.5625 1.875 18.0938C2.40625 18.625 2.96875 18.9688 3.59375 19.1875C4.21875 19.4062 4.90625 19.5938 5.96875 19.625C7.03125 19.6875 7.3125 19.6875 9.96875 19.6875C12.625 19.6875 12.9062 19.6875 13.9687 19.6562C15.0312 19.625 15.6875 19.4375 16.3437 19.2188C17 19 17.5312 18.6562 18.0625 18.125C18.5937 17.5938 18.9375 17.0312 19.1562 16.4062C19.375 15.7812 19.5625 15.0938 19.5937 14.0312C19.625 13.0312 19.625 12.7188 19.625 10.0625C19.625 7.40625 19.6875 7.0625 19.6562 6ZM17.9062 13.9062C17.875 14.8438 17.6875 15.3438 17.5625 15.7188C17.375 16.1562 17.1562 16.5 16.8125 16.8125C16.4687 17.1562 16.1562 17.3438 15.7187 17.5625C15.375 17.6875 14.875 17.875 13.9062 17.9062C12.9062 17.9062 12.5937 17.9062 10.0312 17.9062C7.46875 17.9062 7.125 17.9062 6.125 17.875C5.1875 17.8438 4.6875 17.6562 4.3125 17.5312C3.875 17.3438 3.53125 17.125 3.21875 16.7812C2.875 16.4375 2.6875 16.125 2.46875 15.6875C2.34375 15.3438 2.15625 14.8438 2.125 13.875C2.125 12.9063 2.125 12.5938 2.125 10C2.125 7.40625 2.125 7.09375 2.15625 6.09375C2.1875 5.15625 2.375 4.65625 2.5 4.28125C2.6875 3.84375 2.90625 3.5 3.21875 3.1875C3.5625 2.84375 3.875 2.65625 4.3125 2.46875C4.65625 2.34375 5.15625 2.15625 6.125 2.125C7.125 2.09375 7.4375 2.09375 10.0312 2.09375C12.625 2.09375 12.9375 2.09375 13.9375 2.125C14.875 2.15625 15.375 2.34375 15.75 2.46875C16.1875 2.65625 16.5312 2.875 16.8437 3.1875C17.1875 3.53125 17.375 3.84375 17.5937 4.28125C17.7187 4.625 17.9062 5.125 17.9375 6.09375C17.9687 7.09375 17.9687 7.40625 17.9687 10C17.9687 12.5938 17.9375 12.9062 17.9062 13.9062Z" fill=""/><path d="M10.0005 5.03125C7.21924 5.03125 5.03174 7.28125 5.03174 10C5.03174 12.7812 7.28174 14.9688 10.0005 14.9688C12.7192 14.9688 15.0005 12.7812 15.0005 10C15.0005 7.21875 12.7817 5.03125 10.0005 5.03125ZM10.0005 13.25C8.18799 13.25 6.75049 11.7812 6.75049 10C6.75049 8.21875 8.21924 6.75 10.0005 6.75C11.813 6.75 13.2505 8.1875 13.2505 10C13.2505 11.8125 11.813 13.25 10.0005 13.25Z" fill=""/><path d="M15.2188 5.96875C15.8573 5.96875 16.375 5.45106 16.375 4.8125C16.375 4.17391 15.8573 3.65625 15.2188 3.65625C14.5802 3.65625 14.0625 4.17391 14.0625 4.8125C14.0625 5.45106 14.5802 5.96875 15.2188 5.96875Z" fill=""/></g><defs><clipPath id="clip0_317_501"><rect width="20" height="20" fill="white"/></clipPath></defs></svg>