<?xml version="1.0" standalone="no"?>
<svg xmlns:xlink="http://www.w3.org/1999/xlink" xmlns="http://www.w3.org/2000/svg" width="20" height="20" viewBox="0 0 20 20" fill="currentColor"><path d="M16.6535 1.6665C17.1222 1.6665 17.5129 1.83577 17.8254 2.17432C18.1639 2.48682 18.3332 2.87744 18.3332 3.34619V16.6535C18.3332 17.1222 18.1639 17.5259 17.8254 17.8644C17.5129 18.1769 17.1222 18.3332 16.6535 18.3332H3.34619C2.87744 18.3332 2.4738 18.1769 2.13525 17.8644C1.82275 17.5259 1.6665 17.1222 1.6665 16.6535V3.34619C1.6665 2.87744 1.82275 2.48682 2.13525 2.17432C2.4738 1.83577 2.87744 1.6665 3.34619 1.6665H16.6535ZM15.4295 15.4295V11.0155C15.4295 10.2603 15.1561 9.62223 14.6092 9.1014C14.0884 8.55452 13.4504 8.28109 12.6952 8.28109C12.3306 8.28109 11.966 8.38525 11.6014 8.59359C11.2368 8.80192 10.9634 9.06234 10.7811 9.37484V8.43734H8.43734V15.4295H10.7811V11.2889C10.7811 10.9764 10.8853 10.716 11.0936 10.5077C11.328 10.2733 11.6014 10.1561 11.9139 10.1561C12.2524 10.1561 12.5259 10.2733 12.7342 10.5077C12.9686 10.716 13.0858 10.9764 13.0858 11.2889V15.4295H15.4295ZM5.74202 7.14827C6.13265 7.14827 6.45817 7.01807 6.71859 6.75765C7.00505 6.47119 7.14827 6.13265 7.14827 5.74202C7.14827 5.3514 7.00505 5.02588 6.71859 4.76546C6.45817 4.479 6.13265 4.33577 5.74202 4.33577C5.3514 4.33577 5.01286 4.479 4.7264 4.76546C4.46598 5.02588 4.33577 5.3514 4.33577 5.74202C4.33577 6.13265 4.46598 6.47119 4.7264 6.75765C5.01286 7.01807 5.3514 7.14827 5.74202 7.14827ZM6.87484 15.4295V8.43734H4.57015V15.4295H6.87484Z" fill=""/><path opacity="0.04" d="M15.4297 15.4297V11.0156C15.4297 10.2604 15.1562 9.6224 14.6094 9.10156C14.0885 8.55469 13.4505 8.28125 12.6953 8.28125C12.3307 8.28125 11.9661 8.38542 11.6016 8.59375C11.237 8.80208 10.9635 9.0625 10.7812 9.375V8.4375H8.4375V15.4297H10.7812V11.2891C10.7812 10.9766 10.8854 10.7161 11.0938 10.5078C11.3281 10.2734 11.6016 10.1562 11.9141 10.1562C12.2526 10.1562 12.526 10.2734 12.7344 10.5078C12.9688 10.7161 13.0859 10.9766 13.0859 11.2891V15.4297H15.4297ZM5.74219 7.14844C6.13281 7.14844 6.45833 7.01823 6.71875 6.75781C7.00521 6.47135 7.14844 6.13281 7.14844 5.74219C7.14844 5.35156 7.00521 5.02604 6.71875 4.76562C6.45833 4.47917 6.13281 4.33594 5.74219 4.33594C5.35156 4.33594 5.01302 4.47917 4.72656 4.76562C4.46615 5.02604 4.33594 5.35156 4.33594 5.74219C4.33594 6.13281 4.46615 6.47135 4.72656 6.75781C5.01302 7.01823 5.35156 7.14844 5.74219 7.14844ZM6.875 15.4297V8.4375H4.57031V15.4297H6.875Z" fill=""/></svg>