<svg width="33" height="20" viewBox="0 0 33 20" fill="none" xmlns="http://www.w3.org/2000/svg">
<g clip-path="url(#clip0_9580_1557)">
<path d="M16.6774 17.8071C14.9794 19.288 12.8072 20.1023 10.5602 20.1004C5.35186 20.1004 1.12988 15.8023 1.12988 10.5004C1.12988 5.19853 5.35186 0.900394 10.5602 0.900394C12.8948 0.900394 15.0307 1.76386 16.6774 3.19373C18.3755 1.71281 20.5477 0.898458 22.7947 0.900394C28.003 0.900394 32.225 5.19853 32.225 10.5004C32.225 15.8023 28.003 20.1004 22.7947 20.1004C20.5477 20.1023 18.3755 19.288 16.6774 17.8071Z" fill="#ED0006"/>
<path d="M16.6777 17.8071C17.7202 16.901 18.556 15.7791 19.1279 14.5181C19.6998 13.257 19.9943 11.8866 19.9913 10.5004C19.9943 9.11424 19.6998 7.74377 19.1279 6.48272C18.556 5.22166 17.7202 4.09976 16.6777 3.19373C18.3758 1.71281 20.548 0.898458 22.795 0.900394C28.0033 0.900394 32.2253 5.19853 32.2253 10.5004C32.2253 15.8023 28.0033 20.1004 22.795 20.1004C20.548 20.1023 18.3758 19.288 16.6777 17.8071Z" fill="#F9A000"/>
<path d="M16.6773 17.8067C17.7198 16.9007 18.5556 15.7788 19.1275 14.5177C19.6994 13.2566 19.9939 11.8862 19.9909 10.5C19.9939 9.11387 19.6994 7.74341 19.1275 6.48235C18.5556 5.22129 17.7198 4.09939 16.6773 3.19336C15.6349 4.09944 14.7992 5.22137 14.2274 6.48242C13.6556 7.74347 13.3612 9.11391 13.3643 10.5C13.3612 11.8861 13.6556 13.2566 14.2274 14.5176C14.7992 15.7787 15.6349 16.9006 16.6773 17.8067Z" fill="#FF5E00"/>
</g>
<defs>
<clipPath id="clip0_9580_1557">
<rect width="33" height="20" fill="white"/>
</clipPath>
</defs>
</svg>
