<svg width="44" height="20" viewBox="0 0 44 20" fill="none" xmlns="http://www.w3.org/2000/svg">
<g clip-path="url(#clip0_9580_1565)">
<path d="M7.79347 5.37018C7.25507 5.00065 6.55251 4.81543 5.68578 4.81543H2.33027C2.06456 4.81543 1.91777 4.9481 1.88988 5.21313L0.52674 13.7558C0.512573 13.8398 0.533599 13.9165 0.589624 13.9862C0.645329 14.0562 0.715393 14.091 0.799304 14.091H2.39315C2.6727 14.091 2.82635 13.9586 2.85456 13.6931L3.232 11.3901C3.24578 11.2785 3.29494 11.1877 3.37885 11.1178C3.4627 11.0481 3.56757 11.0024 3.69341 10.9815C3.81924 10.9608 3.93789 10.9503 4.04994 10.9503C4.16168 10.9503 4.29443 10.9574 4.44847 10.9713C4.60212 10.9852 4.70007 10.992 4.74206 10.992C5.94437 10.992 6.88809 10.6538 7.57328 9.97658C8.25815 9.29965 8.60097 8.36097 8.60097 7.16033C8.60097 6.33677 8.33161 5.74004 7.79347 5.36992V5.37018ZM6.06334 7.9353C5.99321 8.42394 5.81168 8.74484 5.51809 8.89844C5.22443 9.05223 4.80501 9.12865 4.25982 9.12865L3.5677 9.14964L3.9243 6.90919C3.95212 6.75578 4.04296 6.67898 4.19687 6.67898H4.59546C5.15443 6.67898 5.56014 6.75943 5.8118 6.91969C6.06334 7.08033 6.14725 7.41901 6.06334 7.9353Z" fill="#003087"/>
<path d="M43.2048 4.81543H41.653C41.4988 4.81543 41.4081 4.89223 41.3804 5.04577L40.0171 13.7562L39.9961 13.798C39.9961 13.8682 40.0241 13.9342 40.0801 13.997C40.1358 14.0597 40.206 14.0911 40.2898 14.0911H41.6741C41.9394 14.0911 42.0862 13.9588 42.1146 13.6934L43.4777 5.12954V5.10874C43.4776 4.91335 43.3864 4.81562 43.2048 4.81562V4.81543Z" fill="#009CDE"/>
<path d="M24.4558 8.18667C24.4558 8.11704 24.4278 8.05061 24.3721 7.98789C24.316 7.92511 24.2531 7.89355 24.1833 7.89355H22.5685C22.4144 7.89355 22.2887 7.9637 22.191 8.1029L19.968 11.3695L19.0453 8.22866C18.975 8.00543 18.8214 7.89355 18.5839 7.89355H17.0108C16.9407 7.89355 16.8778 7.92504 16.8222 7.98789C16.7661 8.05061 16.7383 8.11711 16.7383 8.18667C16.7383 8.21483 16.8746 8.62642 17.1472 9.42207C17.4198 10.2178 17.7134 11.0763 18.028 11.9977C18.3426 12.9189 18.5067 13.4077 18.5208 13.4632C17.3743 15.0267 16.8012 15.8643 16.8012 15.9758C16.8012 16.1574 16.8921 16.248 17.0739 16.248H18.6887C18.8424 16.248 18.9682 16.1784 19.0662 16.0387L24.4141 8.33311C24.4419 8.30539 24.4558 8.25675 24.4558 8.18661V8.18667Z" fill="#003087"/>
<path d="M39.4927 7.89369H37.8988C37.7029 7.89369 37.5844 8.12403 37.5425 8.5847C37.1785 8.02662 36.5148 7.74707 35.55 7.74707C34.5433 7.74707 33.6868 8.12403 32.9809 8.87782C32.2748 9.63168 31.9219 10.5182 31.9219 11.5371C31.9219 12.3608 32.163 13.0168 32.6453 13.5052C33.1276 13.9941 33.7742 14.2381 34.5854 14.2381C34.9907 14.2381 35.4032 14.1542 35.8226 13.9868C36.2421 13.8193 36.5703 13.5961 36.8084 13.3168C36.8084 13.3308 36.7942 13.3935 36.7665 13.5051C36.7383 13.617 36.7245 13.7009 36.7245 13.7564C36.7245 13.98 36.8151 14.0913 36.9972 14.0913H38.4444C38.7096 14.0913 38.8637 13.959 38.9055 13.6935L39.7654 8.22861C39.7792 8.14483 39.7583 8.06816 39.7025 7.99827C39.6464 7.9287 39.5766 7.89369 39.4927 7.89369ZM36.7559 12.0186C36.3994 12.3676 35.9694 12.5421 35.4662 12.5421C35.0605 12.5421 34.7323 12.4306 34.4805 12.2071C34.2287 11.9842 34.1028 11.6771 34.1028 11.2858C34.1028 10.7697 34.2776 10.3332 34.6273 9.97722C34.9764 9.62125 35.4102 9.44326 35.9275 9.44326C36.3187 9.44326 36.6438 9.55846 36.9026 9.78867C37.1611 10.019 37.2908 10.3367 37.2908 10.7415C37.2907 11.244 37.1124 11.6698 36.7559 12.0186Z" fill="#009CDE"/>
<path d="M15.6686 7.89369H14.0748C13.8787 7.89369 13.7602 8.12403 13.7182 8.5847C13.3407 8.02662 12.6765 7.74707 11.7258 7.74707C10.7191 7.74707 9.86266 8.12403 9.15669 8.87782C8.45054 9.63168 8.09766 10.5182 8.09766 11.5371C8.09766 12.3608 8.33887 13.0168 8.82125 13.5052C9.30362 13.9941 9.95009 14.2381 10.7611 14.2381C11.1524 14.2381 11.5581 14.1542 11.9775 13.9868C12.3969 13.8193 12.7325 13.5961 12.9841 13.3168C12.928 13.4842 12.9002 13.6308 12.9002 13.7564C12.9002 13.98 12.9911 14.0913 13.1728 14.0913H14.6199C14.8853 14.0913 15.0393 13.959 15.0813 13.6935L15.9411 8.22861C15.9549 8.14483 15.9339 8.06816 15.8782 7.99827C15.8223 7.9287 15.7525 7.89369 15.6686 7.89369ZM12.9318 12.029C12.5752 12.3715 12.138 12.5421 11.6211 12.5421C11.2153 12.5421 10.8903 12.4306 10.6458 12.2071C10.401 11.9842 10.2787 11.6771 10.2787 11.2858C10.2787 10.7697 10.4534 10.3332 10.8031 9.97722C11.1524 9.62125 11.5859 9.44326 12.1034 9.44326C12.4946 9.44326 12.8197 9.55846 13.0786 9.78873C13.3371 10.0191 13.4666 10.3368 13.4666 10.7416C13.4666 11.258 13.2883 11.6874 12.9318 12.029Z" fill="#003087"/>
<path d="M31.6178 5.37018C31.0794 5.00065 30.377 4.81543 29.5101 4.81543H26.1755C25.8958 4.81543 25.7419 4.9481 25.7142 5.21313L24.351 13.7558C24.3368 13.8398 24.3578 13.9165 24.4138 13.9863C24.4693 14.0562 24.5396 14.091 24.6235 14.091H26.3431C26.5109 14.091 26.6227 14.0003 26.6787 13.8188L27.0563 11.3901C27.0701 11.2785 27.1191 11.1877 27.2031 11.1178C27.287 11.0481 27.3917 11.0024 27.5177 10.9815C27.6435 10.9608 27.7621 10.9503 27.8742 10.9503C27.986 10.9503 28.1187 10.9574 28.2726 10.9713C28.4263 10.9852 28.5246 10.992 28.5662 10.992C29.7687 10.992 30.7122 10.6538 31.3974 9.97658C32.0826 9.29965 32.4251 8.36097 32.4251 7.16033C32.4252 6.33684 32.1559 5.7401 31.6178 5.36999V5.37018ZM29.4681 8.81466C29.1605 9.02401 28.6991 9.12865 28.084 9.12865L27.4129 9.14964L27.7694 6.90919C27.7971 6.75578 27.888 6.67898 28.042 6.67898H28.4194C28.7269 6.67898 28.9715 6.69293 29.1536 6.72077C29.3351 6.74893 29.5101 6.83591 29.6779 6.98247C29.8457 7.12909 29.9296 7.34202 29.9296 7.62119C29.9296 8.20743 29.7756 8.60519 29.4681 8.81466Z" fill="#009CDE"/>
</g>
<defs>
<clipPath id="clip0_9580_1565">
<rect width="44" height="20" fill="white"/>
</clipPath>
</defs>
</svg>
