<svg width="34" height="20" viewBox="0 0 34 20" fill="none" xmlns="http://www.w3.org/2000/svg">
<g clip-path="url(#clip0_9580_1562)">
<path d="M8.37382 15.2505H5.49963L3.34412 6.97633C3.24183 6.59553 3.02453 6.25899 2.70494 6.10059C1.90782 5.70166 1.02908 5.38486 0.0703125 5.22486V4.90593H4.70092C5.3401 4.90593 5.81922 5.38486 5.89872 5.94059L7.01702 11.9097L9.89015 4.90593H12.6848L8.37382 15.2505ZM14.2828 15.2505H11.5681L13.8031 4.90539H16.5178L14.2828 15.2505ZM20.0301 7.77153C20.1096 7.21419 20.5893 6.89579 21.1484 6.89579C22.0272 6.81579 22.9843 6.97579 23.783 7.37313L24.2622 5.14539C23.4734 4.83414 22.6343 4.67196 21.7871 4.66699C19.153 4.66699 17.2354 6.10006 17.2354 8.08886C17.2354 9.60139 18.5933 10.3961 19.5521 10.8745C20.5893 11.3518 20.9884 11.6702 20.9089 12.1475C20.9089 12.8633 20.1096 13.1822 19.3125 13.1822C18.3537 13.1822 17.3955 12.9433 16.5178 12.5449L16.0387 14.7737C16.9975 15.1705 18.0341 15.3305 18.9929 15.3305C21.9471 15.4094 23.783 13.9774 23.783 11.8291C23.783 9.12299 20.0301 8.96459 20.0301 7.77153ZM33.2838 15.2505L31.1283 4.90539H28.8122C28.3331 4.90539 27.854 5.22433 27.6939 5.70113L23.703 15.2505H26.4972L27.0547 13.739H30.4886L30.8082 15.2505H33.2838ZM29.2124 7.69153L30.01 11.5902H27.7745L29.2124 7.69153Z" fill="#172B85"/>
</g>
<defs>
<clipPath id="clip0_9580_1562">
<rect width="34" height="20" fill="white"/>
</clipPath>
</defs>
</svg>
