<svg width="52" height="20" viewBox="0 0 52 20" fill="none" xmlns="http://www.w3.org/2000/svg">
<path d="M0 3.51251H5.18717C7.01132 6.93954 8.82399 10.3791 10.6488 13.8054L10.0041 15.0121C9.7782 15.4151 9.50374 15.7909 9.1578 16.0639C8.87186 16.2842 8.53805 16.453 8.17998 16.4787C7.81043 16.5176 7.45236 16.4009 7.13068 16.1939C6.73751 15.934 6.42731 15.5575 6.17711 15.1421C5.98563 14.8176 5.81969 14.48 5.64033 14.1431C3.76831 10.6125 1.88415 7.06807 0 3.51251ZM6.90409 3.51251H12.0913C13.3314 5.86204 14.5837 8.21087 15.836 10.5472C16.0025 10.8848 16.3485 11.1058 16.6944 11.1058C17.0518 11.1058 17.3863 10.8848 17.565 10.5472C16.3249 8.19837 15.0726 5.84884 13.8324 3.5H19.0202L21.0238 7.27648C19.8194 9.5482 18.615 11.806 17.4105 14.0778C17.2318 14.4022 17.0646 14.7266 16.8859 15.0511C16.6593 15.454 16.3734 15.8173 16.0274 16.0897C15.7294 16.3106 15.3828 16.4662 15.0139 16.4662C14.6477 16.4751 14.2884 16.3569 13.9882 16.1286C13.6065 15.8562 13.3084 15.4797 13.0697 15.0643C12.891 14.753 12.7244 14.4279 12.5572 14.1035C10.6616 10.5861 8.78889 7.05625 6.90473 3.51251" fill="#FFDD00"/>
<path d="M23.0146 3.51251H24.0403C24.2312 4.34339 24.4335 5.16107 24.6244 5.99195C24.7916 6.71862 24.9582 7.4453 25.0896 8.18517C25.209 7.4321 25.3877 6.67972 25.5543 5.92734C25.733 5.12147 25.9245 4.31768 26.1153 3.51251H27.1525C27.4394 4.68142 27.7136 5.85395 27.9752 7.02986C28.0582 7.39319 28.1303 7.74402 28.1897 8.10736C28.2733 7.60091 28.3812 7.09516 28.4999 6.58871C28.7265 5.56331 28.9767 4.5254 29.2275 3.5H30.2168C29.7164 5.5112 29.2033 7.5363 28.7029 9.5482H27.6178C27.3548 8.4575 27.0925 7.35429 26.8544 6.25108C26.7708 5.84884 26.6872 5.4466 26.6157 5.03116C26.52 5.64112 26.3777 6.23857 26.2341 6.84853C26.0196 7.74402 25.793 8.63951 25.5786 9.5482H24.5171C24.0161 7.5495 23.515 5.5244 23.0146 3.51251ZM38.2896 4.09676C38.5883 4.01895 38.8985 3.92795 39.1959 3.85014V5.12147H39.8163C39.8163 5.40769 39.8284 5.69322 39.8284 5.97875H39.1965V8.53531C39.1965 8.65271 39.2916 8.75622 39.3989 8.75622C39.5418 8.76942 39.6855 8.74303 39.8284 8.73052V9.57391C39.5776 9.65171 39.3274 9.65172 39.0772 9.65172C38.8857 9.65172 38.6834 9.58711 38.5404 9.43149C38.3617 9.24947 38.2902 8.98965 38.2902 8.72983V5.96555H37.8128V5.10896H38.2902L38.2896 4.09676ZM30.79 5.31738C31.1346 5.09576 31.5527 5.00476 31.9459 5.03116C32.3397 5.04436 32.7328 5.17427 33.0437 5.43409C33.3296 5.65432 33.5441 5.97875 33.6756 6.34209C33.8415 6.77073 33.89 7.25077 33.8779 7.71762H30.7178C30.7408 7.92112 30.8124 8.11453 30.9254 8.27858C31.0384 8.44264 31.1888 8.57163 31.3619 8.65271C31.815 8.86043 32.399 8.78193 32.7571 8.40609C32.8528 8.31508 32.9237 8.18517 32.9837 8.06846C33.2339 8.21087 33.4847 8.34079 33.7228 8.4839C33.532 8.92504 33.1739 9.26198 32.7571 9.45719C32.3435 9.6481 31.8885 9.70667 31.4455 9.62601C31.0226 9.56238 30.6296 9.353 30.324 9.02855C30.0242 8.69971 29.8245 8.27841 29.7522 7.82183C29.6685 7.28968 29.7279 6.71862 29.9545 6.23788C30.1696 5.84884 30.4555 5.5244 30.7893 5.31668M31.0746 6.18508C30.8865 6.36127 30.7638 6.60601 30.7293 6.87354H32.8994C32.888 6.71821 32.8432 6.56797 32.7686 6.43498C32.6939 6.30199 32.5916 6.18996 32.4699 6.10797C32.0646 5.80924 31.4563 5.83494 31.0753 6.18577M35.4518 5.05755C35.9171 4.97905 36.4297 5.04366 36.8235 5.34239C37.1573 5.58901 37.3724 6.00445 37.3724 6.44629C37.0852 6.4977 36.8113 6.56301 36.5254 6.61442C36.5012 6.4588 36.4897 6.30318 36.4175 6.17327C36.3103 5.97875 36.0959 5.87454 35.8929 5.84884C35.702 5.83633 35.5118 5.86204 35.3446 5.96555C35.29 6.00188 35.2456 6.05377 35.2161 6.1156C35.1866 6.17744 35.1732 6.24687 35.1774 6.31638C35.1902 6.44629 35.2853 6.54981 35.3925 6.61511C35.5712 6.71862 35.762 6.77073 35.965 6.82214C36.3224 6.92634 36.6926 7.01666 37.0143 7.22507C37.2288 7.36749 37.4075 7.57521 37.4911 7.83503C37.6219 8.27618 37.5505 8.79513 37.2524 9.13276C36.9543 9.47039 36.5133 9.59961 36.0959 9.62601C35.5712 9.66491 35.0229 9.5357 34.5934 9.17167C34.3189 8.95075 34.1402 8.5881 34.1402 8.21087C34.4262 8.14626 34.7249 8.09416 35.0108 8.02955C35.0229 8.19837 35.0702 8.36718 35.1774 8.4839C35.3561 8.69162 35.6306 8.75622 35.8814 8.75622C36.0722 8.75622 36.2867 8.73052 36.4418 8.58741C36.5726 8.4707 36.6205 8.25047 36.5248 8.09416C36.4418 7.96425 36.2867 7.89964 36.1552 7.83503C35.7742 7.69192 35.3804 7.62662 35.0108 7.44599C34.7721 7.34178 34.5576 7.18547 34.4147 6.95274C34.1638 6.53661 34.1996 5.93984 34.4976 5.55011C34.7485 5.29098 35.0944 5.12286 35.4518 5.05755ZM41.0801 5.32988C41.4347 5.10903 41.8408 5.00523 42.2487 5.03116C42.6414 5.04322 43.0226 5.1783 43.3465 5.4202C43.644 5.65432 43.8705 5.97875 44.0135 6.35529C44.1807 6.78323 44.2286 7.25077 44.205 7.71762H41.0443C41.0922 8.12056 41.3309 8.4839 41.6647 8.63951C41.8799 8.74206 42.1157 8.78275 42.3495 8.75769C42.5833 8.73263 42.8073 8.64266 43 8.4964C43.1433 8.37969 43.2508 8.23704 43.3223 8.06846C43.5725 8.19837 43.8227 8.34079 44.0735 8.4839C43.8948 8.91184 43.5489 9.23627 43.1672 9.43149C42.4281 9.80733 41.4975 9.73022 40.842 9.18487C40.4846 8.88614 40.2458 8.44499 40.138 7.96425C40.0155 7.39889 40.0701 6.80519 40.2931 6.27748C40.4718 5.87454 40.7462 5.55011 41.0801 5.32988ZM41.7362 5.97875C41.3788 6.10866 41.1043 6.472 41.0564 6.87493H43.2265C43.2056 6.67026 43.1312 6.47641 43.0121 6.31638C42.7019 5.91345 42.1657 5.80993 41.7362 5.97875ZM48.9741 5.07006C49.44 4.95335 49.9404 5.00545 50.3457 5.29098C50.6317 5.4855 50.8468 5.80993 50.954 6.16077C51.037 6.41989 51.0612 6.70542 51.0612 6.97845V9.56071H50.0955V7.13406C50.0955 6.87424 50.0713 6.60191 49.9404 6.38099C49.8423 6.19919 49.6844 6.06465 49.4987 6.00445C49.1177 5.88774 48.6403 5.96555 48.4022 6.32889C48.235 6.56301 48.1756 6.87424 48.1756 7.15977V9.56071H47.2093V5.10896H48.0441V5.74532C48.2471 5.39449 48.6039 5.16107 48.9741 5.07006ZM44.6218 5.10896H45.4209V5.66752C45.5281 5.4855 45.6832 5.32988 45.8619 5.23888C46.16 5.08326 46.4938 5.05755 46.8161 5.10896C46.8161 5.42089 46.8161 5.73212 46.804 6.04336C46.5423 6.00445 46.2551 5.99195 45.9934 6.10866C45.9093 6.14745 45.8332 6.2042 45.7696 6.27556C45.7061 6.34692 45.6563 6.43143 45.6232 6.5241C45.5402 6.74433 45.576 6.99095 45.5639 7.21187C45.5639 7.98995 45.5639 8.78193 45.576 9.56071H44.6103C44.6218 8.08096 44.6218 6.60121 44.6218 5.10896ZM33.2345 10.3527C33.389 10.3006 33.5792 10.3138 33.7107 10.418C33.8779 10.5347 33.9851 10.7424 33.973 10.9494C33.9657 11.0843 33.917 11.2125 33.8349 11.3138C33.7528 11.415 33.6418 11.4834 33.5198 11.508C33.3175 11.5469 33.0909 11.4559 32.9716 11.2871C32.918 11.2105 32.8825 11.1209 32.868 11.026C32.8535 10.931 32.8606 10.8337 32.8886 10.7424C32.912 10.6515 32.9558 10.5684 33.0161 10.5004C33.0764 10.4325 33.1512 10.382 33.2339 10.3534M23.4436 13.9999V10.3527H24.422V13.961C24.4335 14.3897 24.5292 14.8565 24.8273 15.1678C25.089 15.4408 25.4828 15.5186 25.8409 15.4797C26.1389 15.4533 26.437 15.3109 26.6279 15.0511C26.8659 14.7398 26.9381 14.3244 26.9381 13.9353V10.3527H27.9037V13.4289C27.9037 13.7665 27.9159 14.1035 27.868 14.4411C27.7965 14.9475 27.6178 15.4533 27.2834 15.8166C26.9853 16.1543 26.5921 16.3495 26.1747 16.4273C25.6737 16.5176 25.1369 16.4787 24.6722 16.2585C24.3263 16.0897 24.0161 15.8173 23.8252 15.4533C23.5636 15.0385 23.4678 14.5189 23.4436 13.9999ZM30.2526 11.9234C30.7057 11.8192 31.2189 11.8713 31.6121 12.1437C31.8986 12.3382 32.101 12.6501 32.2082 12.9877C32.2918 13.2601 32.3275 13.5588 32.3275 13.8443V16.4141H31.3619V14.0778C31.3619 13.8179 31.3497 13.5324 31.2425 13.2858C31.1669 13.1037 31.0304 12.9599 30.8608 12.8835C30.67 12.7932 30.4434 12.7793 30.2411 12.8189C30.0207 12.8555 29.8208 12.9804 29.6807 13.1691C29.5134 13.4032 29.4541 13.7144 29.4541 13.9999V16.4141H28.4878V11.9623H29.3226V12.598C29.5256 12.2347 29.883 12.0006 30.2526 11.9234ZM36.251 11.8845C36.752 11.8324 37.2645 11.9359 37.6934 12.2347C38.0515 12.4681 38.3253 12.8321 38.481 13.2469C38.7906 14.052 38.6834 15.0511 38.1587 15.7131C37.8465 16.102 37.4216 16.363 36.9543 16.453C36.4418 16.5572 35.8814 16.4919 35.4161 16.2196C35.0508 16.0126 34.7547 15.6857 34.5698 15.2852C34.1996 14.4675 34.2711 13.4164 34.8078 12.7147C35.1653 12.2215 35.7027 11.9366 36.251 11.8845ZM36.3333 12.8446C36.0238 12.8873 35.7418 13.0595 35.547 13.3247C35.1895 13.8179 35.201 14.571 35.5584 15.0643C35.785 15.3755 36.1667 15.5575 36.5363 15.5318C36.9064 15.5318 37.276 15.3234 37.5026 14.9864C37.8364 14.48 37.8121 13.7144 37.419 13.2601C37.2825 13.1004 37.1124 12.9793 36.9235 12.9069C36.7345 12.8345 36.5315 12.8132 36.3333 12.8446ZM40.8777 11.9234C41.3309 11.8192 41.8319 11.8581 42.2251 12.1312C42.511 12.3125 42.714 12.6105 42.8334 12.9488C42.9291 13.2212 42.9642 13.5199 42.9642 13.8179V16.4141H41.9985V13.9478C41.9985 13.6755 41.9628 13.4032 41.8198 13.1698C41.7654 13.0812 41.6951 13.0055 41.613 12.9475C41.5309 12.8895 41.4388 12.8502 41.3424 12.8321C41.1413 12.7822 40.9317 12.791 40.7348 12.8578C40.5439 12.92 40.3792 13.0533 40.2695 13.2344C40.1265 13.4546 40.0786 13.7401 40.0786 13.9999V16.4141H39.1129V11.9623H39.9478V12.598C40.1501 12.2347 40.5082 12.0144 40.8777 11.9234ZM32.9358 11.9623H33.9015V16.4141H32.9358V11.9623Z" fill="#1F2937"/>
</svg>
