<svg width="165" height="36" viewBox="0 0 165 36" fill="none" xmlns="http://www.w3.org/2000/svg">
<g clip-path="url(#clip0_2919_11477)">
<path d="M18 36C27.9411 36 36 27.9411 36 18C36 8.05887 27.9411 0 18 0C8.05887 0 0 8.05887 0 18C0 27.9411 8.05887 36 18 36Z" fill="#3C50E0"/>
<path d="M11.1445 10.4995L18.0015 18.0426V25.4995H11.1445V10.4995Z" fill="white"/>
<path opacity="0.7" d="M24.857 25.5L18 17.9569V10.5H24.857V25.5Z" fill="white"/>
<path d="M54.5542 26.0719L47.0523 14.648V26.0719H43.8828V9.69995H47.6224L54.7594 20.5538V9.69995H57.9517V26.0719H54.5542Z" fill="#1C274C"/>
<path d="M66.3349 26.2771C62.6866 26.2771 60.2467 23.7461 60.2467 19.9381C60.2467 16.3126 62.7778 13.6675 66.2893 13.6675C70.1429 13.6675 72.6967 16.7914 72.1267 20.759H63.4847C63.6899 22.7428 64.6476 23.8373 66.2665 23.8373C67.6575 23.8373 68.5923 23.1532 68.9572 21.9447H72.1039C71.4198 24.7038 69.2992 26.2771 66.3349 26.2771ZM66.2209 15.9933C64.7388 15.9933 63.8039 16.951 63.5303 18.7524H68.7748C68.6835 17.0651 67.7259 15.9933 66.2209 15.9933Z" fill="#1C274C"/>
<path d="M76.0426 26.0719H72.5083L76.6126 19.8697L72.7819 13.8955H76.4302L78.9157 18.0911L81.4239 13.8955H84.753L80.9679 19.9837L85.0494 26.0719H81.4467L78.7104 21.6939L76.0426 26.0719Z" fill="#1C274C"/>
<path d="M94.2898 22.9936V25.7527C93.5146 26.1403 92.7849 26.2999 91.85 26.2999C89.3418 26.2999 87.7684 24.8634 87.7684 22.1271V16.609H85.3058V13.8955H87.7684V10.2928H90.9151V13.8955H94.4039V16.609H90.9151V21.3975C90.9151 22.8112 91.5536 23.3812 92.6937 23.3812C93.2865 23.3812 93.8338 23.2444 94.2898 22.9936Z" fill="#1C274C"/>
<path d="M104.046 26.0719L99.7595 15.1953V26.0719H96.6128V9.69995H100.763L105.506 21.8307L110.271 9.69995H114.421V26.0719H111.275V15.1041L106.942 26.0719H104.046Z" fill="#1C274C"/>
<path d="M122.784 26.2771C119.135 26.2771 116.695 23.7461 116.695 19.9381C116.695 16.3126 119.227 13.6675 122.738 13.6675C126.592 13.6675 129.145 16.7914 128.575 20.759H119.933C120.139 22.7428 121.096 23.8373 122.715 23.8373C124.106 23.8373 125.041 23.1532 125.406 21.9447H128.553C127.869 24.7038 125.748 26.2771 122.784 26.2771ZM122.67 15.9933C121.187 15.9933 120.253 16.951 119.979 18.7524H125.223C125.132 17.0651 124.175 15.9933 122.67 15.9933Z" fill="#1C274C"/>
<path d="M133.868 20.1661V26.0719H130.698V13.8955H133.617V16.2442C134.506 14.6936 136.399 13.7587 138.36 13.7587V17.0422C135.669 16.837 133.868 17.4755 133.868 20.1661Z" fill="#1C274C"/>
<path d="M145.048 26.2999C141.536 26.2999 139.119 23.7005 139.119 19.9837C139.119 16.3354 141.627 13.6675 145.048 13.6675C148.217 13.6675 150.566 15.8109 150.953 19.0944H147.624C147.465 17.4755 146.484 16.4722 145.048 16.4722C143.406 16.4722 142.357 17.8175 142.357 19.9837C142.357 22.1727 143.383 23.4953 145.048 23.4953C146.507 23.4953 147.442 22.5376 147.624 20.873H150.953C150.589 24.2249 148.308 26.2999 145.048 26.2999Z" fill="#1C274C"/>
<path d="M158.234 26.2771C154.586 26.2771 152.146 23.7461 152.146 19.9381C152.146 16.3126 154.677 13.6675 158.188 13.6675C162.042 13.6675 164.596 16.7914 164.026 20.759H155.384C155.589 22.7428 156.547 23.8373 158.165 23.8373C159.556 23.8373 160.491 23.1532 160.856 21.9447H164.003C163.319 24.7038 161.198 26.2771 158.234 26.2771ZM158.12 15.9933C156.638 15.9933 155.703 16.951 155.429 18.7524H160.674C160.583 17.0651 159.625 15.9933 158.12 15.9933Z" fill="#1C274C"/>
</g>
<defs>
<clipPath id="clip0_2919_11477">
<rect width="165" height="36" fill="white"/>
</clipPath>
</defs>
</svg>
